# xmcd
#
# Track frame offsets:
#	150
#	20950
#	37390
#	58670
#	75722
#	97182
#	116470
#	138637
#	153882
#	169080
#	184482
#
# Disc length: 2717 seconds
#
# Revision: 1
# Processed by: cddbd v1.4b42PL1 Copyright (c) Steve Scherf et al.
# Submitted via: CDmax 1.8
#
DISCID=a00a9b0b
DTITLE=The Boogiemen - Throwdown
DYEAR=1900
DGENRE=Blues
TTITLE0=I Know What I Want
TTITLE1=Universal Blues
TTITLE2=She Growls Me
TTITLE3=Hooked on You
TTITLE4=Trash Talkin'
TTITLE5=Drinkin' and Cryin'
TTITLE6=All I Wanna Do
TTITLE7=Catnip
TTITLE8=Mind of a Woman
TTITLE9=Chicks that Smoke
TTITLE10=I've Been Sick
EXTD=
EXTT0=
EXTT1=
EXTT2=
EXTT3=
EXTT4=
EXTT5=
EXTT6=
EXTT7=
EXTT8=
EXTT9=
EXTT10=
PLAYORDER=
